<svg class="h-[359.02px] relative overflow-visible" width="458" height="360" viewBox="0 0 458 360" fill="none" xmlns="http://www.w3.org/2000/svg">
    <path d="M28.46 194.143C56.635 233.405 86.5002 242.434 112.832 250.441C136.048 257.473 156.412 263.552 176.468 291.945C194.812 317.544 196.151 337.353 195.756 359.047H31.5762C23.1997 359.041 15.1681 355.672 9.24707 349.683C3.32626 343.693 0.00012008 335.572 0 327.104L28.46 194.143ZM223.953 0.046875C225.862 25.4013 230.361 54.1275 258.536 86.8242C290.025 123.403 320.547 129.747 347.516 135.314C371.346 140.394 391.885 144.543 414.597 170.807C418.504 175.302 422.075 180.084 425.282 185.114L425.085 185.07L394.693 327.037C394.676 335.505 391.334 343.619 385.4 349.597C379.467 355.574 371.428 358.925 363.052 358.913H235.254C235.671 333.115 233.915 303.923 208.439 268.387C180.33 229.124 150.443 220.052 124.111 212.044C100.808 205.145 80.7073 199.222 60.4756 170.695C51.225 158.437 45.112 144.059 42.6797 128.838L63.2188 31.9893C63.2188 23.5175 66.5478 15.3928 72.4736 9.40234C78.3995 3.41196 86.437 0.046875 94.8174 0.046875H223.953ZM426.424 0.0244141C434.8 0.0303553 442.832 3.39808 448.753 9.3877C454.674 15.3774 458 23.4991 458 31.9668L435.596 135.248C407.377 106.722 379.223 100.955 355.371 95.875C331.519 90.7952 310.958 86.8019 288.247 60.3828C273.208 43.847 264.44 22.4664 263.495 0.0244141H426.424Z" fill="url(#paint0_linear_48_29)" fill-opacity="0.1" />
    <defs>
        <linearGradient id="paint0_linear_48_29" x1="229" y1="0.0244141" x2="229" y2="359.047" gradientUnits="userSpaceOnUse">
            <stop stop-color="#3781E2" />
            <stop offset="1" stop-color="#1E477C" />
        </linearGradient>
    </defs>
</svg>