<svg width="118" height="34" viewBox="0 0 118 34" fill="none" xmlns="http://www.w3.org/2000/svg">
<path d="M54.3609 14.8561C55.2417 15.7263 55.6821 16.885 55.6821 18.3322V26.1196H52.1111V18.7743C52.1211 18.4902 52.0693 18.2074 51.9594 17.9455C51.8495 17.6837 51.6842 17.4492 51.4749 17.2585C51.0217 16.8623 50.4352 16.6556 49.8357 16.6807C49.1818 16.6625 48.5462 16.8997 48.0618 17.3427C47.8304 17.5463 47.6459 17.7982 47.5212 18.0811C47.3965 18.3639 47.3346 18.6707 47.3397 18.9802V26.1266H43.7687V13.7964H46.9729L47.1679 15.2257C47.6292 14.6914 48.2005 14.2648 48.8421 13.9756C49.4836 13.6863 50.18 13.5413 50.8828 13.5508C52.3208 13.5508 53.4802 13.9859 54.3609 14.8561ZM63.8294 24.5172C63.2377 23.9199 62.7724 23.2079 62.4615 22.4243C62.1506 21.6406 62.0007 20.8017 62.0206 19.958C62.0007 19.1143 62.1506 18.2754 62.4615 17.4917C62.7724 16.7081 63.2377 15.9961 63.8294 15.3988C65.0367 14.1668 66.5621 13.5508 68.4057 13.5508C69.2471 13.532 70.0836 13.6848 70.865 13.9998C71.6464 14.3148 72.3565 14.7857 72.9529 15.3841C73.5492 15.9824 74.0193 16.696 74.3352 17.482C74.651 18.268 74.8059 19.1102 74.7907 19.958C74.8059 20.8058 74.651 21.648 74.3352 22.434C74.0193 23.22 73.5492 23.9336 72.9529 24.5319C72.3565 25.1303 71.6464 25.6012 70.865 25.9162C70.0836 26.2312 69.2471 26.384 68.4057 26.3652C66.5621 26.3652 65.0367 25.7492 63.8294 24.5172ZM70.4605 22.2739C71.0046 21.6291 71.2917 20.8039 71.2662 19.958C71.2924 19.1049 71.0055 18.2721 70.4605 17.6187C70.2031 17.323 69.8861 17.0861 69.5305 16.9237C69.1749 16.7614 68.7891 16.6774 68.3987 16.6774C68.0083 16.6774 67.6225 16.7614 67.2669 16.9237C66.9114 17.0861 66.5943 17.323 66.3369 17.6187C65.797 18.2743 65.5145 19.1066 65.5429 19.958C65.5106 20.81 65.7936 21.6437 66.3369 22.2973C66.5971 22.5891 66.9156 22.8222 67.2714 22.9814C67.6273 23.1406 68.0125 23.2222 68.4018 23.2208C68.7912 23.2195 69.1759 23.1353 69.5306 22.9737C69.8854 22.8121 70.2023 22.5768 70.4605 22.2832V22.2739ZM92.9683 7.63476V26.1149L89.8129 26.1383L89.6156 24.8588C89.1709 25.3434 88.6294 25.7278 88.0268 25.9866C87.4241 26.2455 86.7739 26.3729 86.1189 26.3606C85.3448 26.3823 84.5756 26.2286 83.8683 25.9108C83.1611 25.593 82.5337 25.1191 82.0325 24.5242C80.9737 23.3016 80.4436 21.7779 80.442 19.9533C80.4405 18.1287 80.9706 16.6051 82.0325 15.3824C82.5337 14.7875 83.1611 14.3137 83.8683 13.9958C84.5756 13.678 85.3448 13.5243 86.1189 13.5461C86.7336 13.5333 87.3446 13.6444 87.9159 13.873C88.4873 14.1016 89.0076 14.443 89.4461 14.8771V7.6254L92.9683 7.63476ZM88.4059 22.6809C88.8782 22.3164 89.2387 21.8251 89.4461 21.2633V18.6527C89.2348 18.086 88.8705 17.5902 88.3943 17.2211C87.9485 16.8725 87.4007 16.6825 86.8364 16.6807C86.444 16.6686 86.0542 16.7466 85.6962 16.9087C85.3382 17.0708 85.0214 17.3128 84.7699 17.6164C84.23 18.272 83.9475 19.1043 83.9759 19.9557C83.9436 20.8076 84.2266 21.6413 84.7699 22.2949C85.0223 22.5974 85.3392 22.8387 85.697 23.0007C86.0548 23.1627 86.4442 23.2413 86.8364 23.2306C87.4057 23.2288 87.9582 23.0353 88.4059 22.6809ZM101.445 11.0852C101.256 10.8994 101.105 10.6772 101.002 10.4317C100.899 10.1862 100.846 9.9224 100.846 9.65588C100.846 9.38936 100.899 9.12554 101.002 8.88004C101.105 8.63454 101.256 8.41234 101.445 8.22659C101.629 8.03679 101.848 7.88646 102.091 7.78473C102.334 7.683 102.594 7.63197 102.857 7.63476C103.121 7.63105 103.384 7.6809 103.629 7.78136C103.874 7.88183 104.096 8.03085 104.283 8.21957C104.472 8.40532 104.623 8.62752 104.726 8.87302C104.829 9.11852 104.882 9.38234 104.882 9.64886C104.882 9.91539 104.829 10.1792 104.726 10.4247C104.623 10.6702 104.472 10.8924 104.283 11.0782C104.097 11.2694 103.875 11.421 103.63 11.5239C103.385 11.6268 103.122 11.6789 102.857 11.677C102.594 11.6798 102.334 11.6288 102.091 11.527C101.848 11.4253 101.629 11.275 101.445 11.0852ZM101.065 13.7964H104.638V26.1196H101.065V13.7964ZM32.8028 18.3275L31.3957 24.8775C31.3957 25.2683 31.2416 25.6432 30.9673 25.9196C30.693 26.1959 30.3209 26.3512 29.933 26.3512H24.0146C24.0332 25.1605 23.9519 23.8131 22.7725 22.1733C21.4699 20.3604 20.0861 19.9416 18.8671 19.572C17.7875 19.2539 16.8564 18.9802 15.9161 17.6632C15.4878 17.0972 15.2047 16.4335 15.0918 15.7309L16.0438 11.2606C16.0438 10.8698 16.1979 10.4949 16.4722 10.2185C16.7465 9.94215 17.1186 9.78688 17.5065 9.78688H23.4876C23.5758 10.9565 23.7848 12.2829 25.0896 13.7917C26.5477 15.4806 27.9617 15.7731 29.2109 16.0304C30.3138 16.2643 31.2657 16.4561 32.3175 17.6679C32.4982 17.8752 32.6635 18.0957 32.812 18.3275H32.8028ZM26.4688 12.5729C27.5206 13.7917 28.4725 13.9765 29.5777 14.2104C30.6829 14.4444 31.9855 14.711 33.2927 16.028L34.3305 11.2606C34.3305 10.8698 34.1764 10.4949 33.9021 10.2185C33.6278 9.94215 33.2557 9.78688 32.8678 9.78688H25.3218C25.3658 10.8228 25.7721 11.8097 26.4688 12.5729ZM21.2911 23.261C20.3624 21.9511 19.4197 21.6703 18.3424 21.3452C17.1211 20.9756 15.7396 20.5592 14.4348 18.7463L13.1183 24.8845C13.1183 25.2753 13.2724 25.6502 13.5467 25.9266C13.821 26.203 14.1931 26.3582 14.581 26.3582H22.185C22.2036 25.357 22.1409 24.4424 21.2911 23.261Z" fill="#3781E2"/>
</svg>
