<svg width="32" height="32" viewBox="0 0 32 32" fill="none" xmlns="http://www.w3.org/2000/svg">
<path d="M16 24C14.6667 23.5 11.4 22.5 9 22.5C6.6 22.5 3.66667 23.5 2.5 24V8C3.33333 7.5 5.8 6.5 9 6.5C12.2 6.5 15 7.5 16 8M16 24C17 23.5 19.8 22.5 23 22.5C26.2 22.5 28.6667 23.5 29.5 24V8C28.5 7.5 25.8 6.5 23 6.5C20.2 6.5 17.1667 7.5 16 8M16 24V8" stroke="currentColor" stroke-width="2" stroke-linejoin="round"/>
<path d="M19.5 11.5C20.3333 11.1667 22.8 10.6 26 11" stroke="currentColor" stroke-width="1.5" stroke-linecap="round"/>
<path d="M19.5 15.5C20.3333 15.1667 22.8 14.6 26 15" stroke="currentColor" stroke-width="1.5" stroke-linecap="round"/>
<path d="M19.5 19.5C20.3333 19.1667 22.8 18.6 26 19" stroke="currentColor" stroke-width="1.5" stroke-linecap="round"/>
</svg>
