<svg width="32" height="32" viewBox="0 0 32 32" fill="none" xmlns="http://www.w3.org/2000/svg">
<path d="M13.3334 27.424C8.76142 28.9667 4.95208 27.424 2.66675 22.6667" stroke="currentColor" stroke-width="2" stroke-linecap="round" stroke-linejoin="round"/>
<path d="M13.3334 29.3333V25.0107C13.3334 24.2133 13.5787 23.52 13.9734 22.8933C14.2454 22.464 14.0587 21.8533 13.5694 21.72C9.51208 20.6027 6.66675 18.8093 6.66675 12.86C6.66675 11.3133 7.17341 9.86 8.06408 8.59333C8.28541 8.27867 8.39741 8.12133 8.42408 7.98C8.45075 7.836 8.40408 7.65067 8.31075 7.27733C7.93341 5.76267 7.95875 4.15333 8.52408 2.704C8.52408 2.704 9.69342 2.32133 12.3561 3.984C12.9641 4.364 13.2681 4.55467 13.5361 4.59733C13.8041 4.64 14.1614 4.55067 14.8761 4.372C15.8979 4.11866 16.9473 3.9937 18.0001 4C19.0528 3.9955 20.1021 4.1209 21.1241 4.37333C21.8387 4.552 22.1974 4.64 22.4654 4.59867C22.7321 4.556 23.0361 4.36533 23.6441 3.98533C26.3067 2.32267 27.4761 2.70533 27.4761 2.70533C28.0414 4.15467 28.0667 5.764 27.6894 7.27867C27.5961 7.652 27.5507 7.83867 27.5774 7.98C27.6041 8.12133 27.7147 8.28 27.9361 8.59467C28.8267 9.86133 29.3334 11.3147 29.3334 12.8613C29.3334 18.8107 26.4881 20.604 22.4307 21.7187C21.9414 21.8533 21.7547 22.464 22.0267 22.892C22.4214 23.5187 22.6667 24.212 22.6667 25.0107V29.3333" stroke="currentColor" stroke-width="2" stroke-linecap="round" stroke-linejoin="round"/>
</svg>
