<svg width="32" height="32" viewBox="0 0 32 32" fill="none" xmlns="http://www.w3.org/2000/svg">
<path d="M3.74023 16.8955C5.46273 19.3016 7.28863 19.855 8.89844 20.3457C10.3176 20.7766 11.562 21.1498 12.7881 22.8896C13.9094 24.4582 13.9919 25.6717 13.9678 27.001H3.93066C3.41863 27.0006 2.9274 26.7947 2.56543 26.4277C2.20346 26.0607 2.00002 25.5628 2 25.0439L3.74023 16.8955ZM15.6914 5.00098C15.8081 6.55473 16.0832 8.31563 17.8057 10.3193C19.7306 12.5607 21.5965 12.9498 23.2451 13.291C24.702 13.6023 25.9582 13.8563 27.3467 15.4658C27.5855 15.7413 27.804 16.0346 28 16.3428L27.9873 16.3398L26.1299 25.04C26.1287 25.5588 25.9241 26.0557 25.5615 26.4219C25.1988 26.7882 24.7074 26.9939 24.1953 26.9932H16.3828C16.4083 25.4122 16.3006 23.623 14.7432 21.4453C13.0248 19.0395 11.1976 18.4839 9.58789 17.9932C8.16322 17.5704 6.93413 17.2071 5.69727 15.459C5.13172 14.7078 4.75807 13.8263 4.60938 12.8936L5.86523 6.95898C5.86523 6.43983 6.06839 5.94132 6.43066 5.57422C6.79292 5.20725 7.28463 5.00098 7.79688 5.00098H15.6914ZM28.0693 5C28.5814 5.00036 29.0726 5.20716 29.4346 5.57422C29.7964 5.94116 29.9999 6.43834 30 6.95703L28.6299 13.2871C26.9047 11.539 25.1838 11.1853 23.7256 10.874C22.2675 10.5628 21.0104 10.318 19.6221 8.69922C18.7027 7.68589 18.1672 6.37527 18.1094 5H28.0693Z" fill="#3781E2"/>
</svg>
