<svg width="32" height="32" viewBox="0 0 32 32" fill="none" xmlns="http://www.w3.org/2000/svg">
<path d="M11.7667 16L13.7333 14.0333C14 13.7667 14.1333 13.4556 14.1333 13.1C14.1333 12.7444 14 12.4333 13.7333 12.1667C13.4667 11.9 13.1502 11.7667 12.784 11.7667C12.4178 11.7667 12.1009 11.9 11.8333 12.1667L8.93333 15.0667C8.8 15.2 8.70533 15.3444 8.64933 15.5C8.59333 15.6556 8.56578 15.8222 8.56667 16C8.56756 16.1778 8.59511 16.3444 8.64933 16.5C8.70356 16.6556 8.79822 16.8 8.93333 16.9333L11.8333 19.8333C12.1 20.1 12.4169 20.2333 12.784 20.2333C13.1511 20.2333 13.4676 20.1 13.7333 19.8333C13.9991 19.5667 14.1324 19.2556 14.1333 18.9C14.1342 18.5444 14.0009 18.2333 13.7333 17.9667L11.7667 16ZM20.2333 16L18.2667 17.9667C18 18.2333 17.8667 18.5444 17.8667 18.9C17.8667 19.2556 18 19.5667 18.2667 19.8333C18.5333 20.1 18.8502 20.2333 19.2173 20.2333C19.5844 20.2333 19.9009 20.1 20.1667 19.8333L23.0667 16.9333C23.2 16.8 23.2947 16.6556 23.3507 16.5C23.4067 16.3444 23.4342 16.1778 23.4333 16C23.4324 15.8222 23.4049 15.6556 23.3507 15.5C23.2964 15.3444 23.2018 15.2 23.0667 15.0667L20.1667 12.1667C20.0333 12.0333 19.8836 11.9333 19.7173 11.8667C19.5511 11.8 19.384 11.7667 19.216 11.7667C19.048 11.7667 18.8813 11.8 18.716 11.8667C18.5507 11.9333 18.4009 12.0333 18.2667 12.1667C18 12.4333 17.8667 12.7444 17.8667 13.1C17.8667 13.4556 18 13.7667 18.2667 14.0333L20.2333 16ZM6.66667 28C5.93333 28 5.30578 27.7391 4.784 27.2173C4.26222 26.6956 4.00089 26.0676 4 25.3333V6.66667C4 5.93333 4.26133 5.30578 4.784 4.784C5.30667 4.26222 5.93422 4.00089 6.66667 4H25.3333C26.0667 4 26.6947 4.26133 27.2173 4.784C27.74 5.30667 28.0009 5.93422 28 6.66667V25.3333C28 26.0667 27.7391 26.6947 27.2173 27.2173C26.6956 27.74 26.0676 28.0009 25.3333 28H6.66667ZM6.66667 25.3333H25.3333V6.66667H6.66667V25.3333Z" fill="currentColor"/>
</svg>
